<?xml version="1.0" encoding="utf-8"?>
<!-- Generator: Adobe Illustrator 25.2.3, SVG Export Plug-In . SVG Version: 6.00 Build 0)  -->
<svg version="1.1" id="Capa_1" xmlns="http://www.w3.org/2000/svg" xmlns:xlink="http://www.w3.org/1999/xlink" x="0px" y="0px"
	 viewBox="0 0 363.6 113.9" style="enable-background:new 0 0 363.6 113.9;" xml:space="preserve">
<style type="text/css">
	.st0{fill:#101E28;}
	.st1{fill:#FF28FF;}
</style>
<path class="st0" d="M187.6,3.2h-17.1v41.9h9.2V32.5h7c9.4,0,17-5,17-14.7v-0.1C203.6,9.1,197.6,3.2,187.6,3.2z M194.3,18
	c0,3.6-2.7,6.3-7.3,6.3h-7.3V11.5h7.1c4.6,0,7.5,2.3,7.5,6.4V18L194.3,18z M290.7,17.1V17c0-8.6-5.9-13.8-15.8-13.8h-19.2v41.9h9.2
	V31.7h7.2l7.6,11.4c0.8,1.3,2.3,2,3.8,2h8.4l-10.2-15C287.1,28.2,290.7,23.9,290.7,17.1 M281.4,17.6c0,3.5-2.6,5.8-7.1,5.8H265v-12
	h9.2c4.5,0,7.2,2.1,7.2,6V17.6z M294.2,11.5H307v33.7h9.2V11.5h9.7c1.7,0,3-1.4,3-3V3.2h-34.7L294.2,11.5L294.2,11.5z M350.3,20
	c-7.2-1.9-9-2.8-9-5.5v-0.1c0-2,1.9-3.7,5.4-3.7c2.8,0,5.6,1,8.5,2.6c1.4,0.8,3.1,0.4,4-0.9l3.1-4.6c-4.2-3.4-9.4-5.3-15.6-5.3
	c-8.6,0-14.7,5-14.7,12.6v0.1c0,8.3,5.4,10.7,13.9,12.8c7,1.8,8.4,3,8.4,5.3v0.1c0,2.5-2.3,4-6,4s-7.2-1.3-10.3-3.4
	c-1.3-0.9-3-0.7-4,0.5l-3.6,4.3c5,4.5,11.4,6.7,17.8,6.7c9,0,15.4-4.7,15.4-13v-0.1C363.6,25.3,358.8,22.2,350.3,20 M150.2,20
	c-7.2-1.9-9-2.8-9-5.5v-0.1c0-2,1.9-3.7,5.4-3.7c2.8,0,5.6,1,8.5,2.6c1.4,0.8,3.1,0.4,4-0.9l3.1-4.6c-4.2-3.4-9.5-5.3-15.6-5.3
	c-8.6,0-14.7,5-14.7,12.6v0.1c0,8.3,5.4,10.7,13.9,12.8c7,1.8,8.4,3,8.4,5.3v0.1c0,2.5-2.3,4-6,4c-3.8,0-7.2-1.3-10.3-3.4
	c-1.3-0.9-3-0.7-4,0.5l-3.6,4.3c5,4.5,11.4,6.7,17.8,6.7c9,0,15.4-4.7,15.4-13v-0.1C163.4,25.3,158.6,22.2,150.2,20 M228.2,2.6
	c-11.9,0-21.5,9.6-21.5,21.5c0,11.9,9.6,21.5,21.5,21.5c11.9,0,21.5-9.6,21.5-21.5C249.8,12.2,240.1,2.6,228.2,2.6z M228.2,37
	c-7.1,0-12.8-5.7-12.8-12.8c0-7.1,5.7-12.8,12.8-12.8c7.1,0,12.8,5.7,12.8,12.8C241,31.2,235.3,37,228.2,37z"/>
<path class="st1" d="M53.7,43.1l11.5,18h0.4V39.9h45.7C104.1,16.8,82.5,0,56.9,0S9.8,16.8,2.6,39.9h45.5
	C50.9,39.9,52.3,40.7,53.7,43.1z M113.2,48.2h-12.5v33.7H89.4V48.2h-13v33.7h-7.6c-2.8,0-4.1-0.8-5.6-3.1l-14.7-22h-0.2v25.1h-11
	V48.2H24.4v33.7H12.8V48.2H0.7C0.2,51.1,0,54,0,56.9c0,31.5,25.5,56.9,56.9,56.9c31.5,0,56.9-25.5,56.9-56.9
	C113.9,54,113.7,51.1,113.2,48.2"/>
<path class="st1" d="M362.9,64.3H131.4v49.6h231.5V64.3z"/>
<path class="st0" d="M149.6,94v11.7h-6v-31h11.6c6.1,0,10.2,4.1,10.2,9.7c0,5.6-4.1,9.7-10.2,9.7L149.6,94L149.6,94z M154.4,88.8
	c3,0,4.8-1.7,4.8-4.4c0-2.7-1.8-4.5-4.8-4.5h-4.8v8.9L154.4,88.8L154.4,88.8z"/>
<path class="st0" d="M180.2,93.7h-3.1v11.9H171v-31h12.1c6,0,9.9,4.2,9.9,9.5c0,4.3-2.5,7.6-6.6,8.8l6.6,12.7h-6.7L180.2,93.7
	L180.2,93.7z M182,88.5c3.1,0,4.8-1.7,4.8-4.3c0-2.5-1.8-4.3-4.8-4.3h-4.9v8.6L182,88.5L182,88.5z"/>
<path class="st0" d="M199.4,105.6v-31h19.4v5.7h-13.4v7.1h12.1v5.4h-12.1v7.2h13.4v5.7L199.4,105.6L199.4,105.6z"/>
<path class="st0" d="M254.5,105.6V83.9l-8.9,21.7h-5l-8.9-21.5v21.5h-5.8v-31h8l9.3,22.4l9.1-22.4h8.2v31H254.5L254.5,105.6z"/>
<path class="st0" d="M268.7,105.6v-31h6.1v31H268.7z"/>
<path class="st0" d="M282.6,94.7v-20h6v19.6c0,4.1,2.3,6.2,5.9,6.2c3.6,0,5.9-2.1,5.9-6.2V74.7h6v20c0,7.6-5.3,11.7-11.9,11.7
	C287.9,106.3,282.6,102.3,282.6,94.7z"/>
<path class="st0" d="M342.9,105.6V83.9l-8.9,21.7h-5l-8.9-21.5v21.5h-5.8v-31h8l9.3,22.4l9.1-22.4h8.2v31H342.9L342.9,105.6z"/>
</svg>
